<svg width="890" height="183" viewBox="0 0 890 183" fill="none" xmlns="http://www.w3.org/2000/svg">
<circle cx="869.025" cy="124.804" r="20.9404" fill="#333333"/>
<path d="M739.614 145.745L768.931 0H802.435L786.521 78.7358H787.358L821.701 41.0431H858.556L815.418 87.5307L840.128 145.745H806.623L792.384 106.796L778.145 121.035L773.119 145.745H739.614Z" fill="#333333"/>
<path d="M675.119 145.745L696.059 41.0431H723.281L722.444 61.5647H723.281C727.33 54.8638 732.076 49.3495 737.521 45.0218C743.105 40.6941 748.829 38.5303 754.692 38.5303C757.624 38.5303 759.997 38.7397 761.812 39.1585C763.627 39.4377 765.023 39.9263 766 40.6243L755.111 69.522C753.715 68.6844 751.97 68.1958 749.876 68.0562C747.782 67.9166 745.897 67.8468 744.222 67.8468C739.894 67.8468 735.776 69.3126 731.867 72.2443C727.958 75.1759 723.98 80.1318 719.931 87.1119L708.623 145.745H675.119Z" fill="#333333"/>
<path d="M627.127 148.258C618.751 148.258 611.422 146.443 605.14 142.813C598.858 139.184 593.972 134.088 590.482 127.527C586.992 120.966 585.247 113.357 585.247 104.702C585.247 94.5109 586.922 85.3669 590.272 77.2699C593.762 69.173 598.369 62.2627 604.093 56.539C609.817 50.6757 616.169 46.2084 623.149 43.1372C630.268 40.0659 637.458 38.5303 644.717 38.5303C653.093 38.5303 660.422 40.3451 666.705 43.9748C672.987 47.6044 677.873 52.6999 681.363 59.2612C684.853 65.8225 686.598 73.4309 686.598 82.0862C686.598 92.2772 684.853 101.421 681.363 109.518C678.012 117.615 673.475 124.595 667.752 130.458C662.028 136.182 655.606 140.58 648.486 143.651C641.506 146.722 634.387 148.258 627.127 148.258ZM630.897 121.454C634.945 121.454 638.575 119.779 641.786 116.428C645.136 113.078 647.788 108.471 649.743 102.608C651.697 96.7445 652.675 90.0436 652.675 82.505C652.675 77.2001 651.697 73.0121 649.743 69.9408C647.928 66.8696 644.996 65.3339 640.948 65.3339C636.9 65.3339 633.2 67.0092 629.85 70.3596C626.639 73.7101 624.056 78.317 622.102 84.1803C620.147 90.0436 619.17 96.7445 619.17 104.283C619.17 109.448 620.147 113.636 622.102 116.847C624.056 119.919 626.988 121.454 630.897 121.454Z" fill="#333333"/>
<path d="M460.043 145.745L456.064 41.0435H489.15L488.103 87.5311C487.964 92.6964 487.615 97.9315 487.056 103.236C486.637 108.402 486.288 113.637 486.009 118.942H486.847C488.801 113.637 490.686 108.332 492.501 103.027C494.316 97.722 496.34 92.5568 498.573 87.5311L517.629 41.0435H546.108L547.155 87.5311C547.295 92.6964 547.225 97.9315 546.946 103.236C546.806 108.402 546.736 113.637 546.736 118.942H547.574C549.528 113.637 551.273 108.402 552.809 103.236C554.484 97.9315 556.229 92.6964 558.044 87.5311L574.796 41.0435H605.788L562.232 145.745H523.283V106.796C523.562 101.91 523.702 97.024 523.702 92.138C523.702 87.1123 523.841 81.8074 524.121 76.2233H523.283C521.329 81.8074 519.514 87.1123 517.839 92.138C516.303 97.024 514.628 101.91 512.813 106.796L497.736 145.745H460.043Z" fill="#333333"/>
<path d="M379.673 148.258C370.459 148.258 363.27 144.907 358.104 138.206C352.939 131.506 350.356 122.013 350.356 109.728C350.356 99.8158 351.892 90.5322 354.963 81.8769C358.035 73.2215 362.153 65.683 367.318 59.2612C372.623 52.6999 378.556 47.6044 385.117 43.9748C391.818 40.3451 398.798 38.5303 406.058 38.5303C410.525 38.5303 414.504 39.5773 417.994 41.6713C421.624 43.7654 424.346 46.6272 426.161 50.2569H426.579L428.673 30.5729L434.537 0H468.041L438.725 145.745H411.502V132.762H411.084C406.477 137.508 401.311 141.278 395.588 144.07C390.004 146.862 384.699 148.258 379.673 148.258ZM394.75 121.035C397.542 121.035 400.544 120.128 403.754 118.313C407.105 116.498 410.246 112.799 413.178 107.215L419.878 73.7101C418.622 70.9181 416.877 68.8938 414.643 67.6374C412.549 66.381 410.525 65.7528 408.571 65.7528C404.522 65.7528 400.683 67.428 397.053 70.7785C393.563 74.1289 390.702 78.8056 388.468 84.8085C386.234 90.8114 385.117 97.7217 385.117 105.539C385.117 110.984 385.955 114.963 387.63 117.475C389.445 119.849 391.818 121.035 394.75 121.035Z" fill="#333333"/>
<path d="M307.229 148.258C298.713 148.258 291.175 146.443 284.613 142.813C278.052 139.184 272.887 134.018 269.117 127.317C265.488 120.477 263.673 112.38 263.673 103.027C263.673 93.394 265.418 84.6689 268.908 76.8511C272.398 68.8938 277.005 62.0533 282.729 56.3296C288.452 50.6059 294.804 46.2084 301.784 43.1372C308.764 40.0659 315.745 38.5303 322.725 38.5303C331.24 38.5303 338.011 40.3451 343.037 43.9748C348.202 47.6044 351.902 52.4207 354.135 58.4236C356.369 64.4265 357.486 71.0576 357.486 78.317C357.486 83.3427 356.788 88.2986 355.392 93.1846C353.996 97.9311 352.879 101.072 352.041 102.608H295.083C295.083 109.867 297.177 115.102 301.366 118.313C305.693 121.524 310.858 123.129 316.861 123.129C319.793 123.129 322.864 122.431 326.075 121.035C329.426 119.639 332.218 118.104 334.451 116.428L346.178 137.369C341.99 140.3 336.615 142.883 330.054 145.117C323.493 147.211 315.884 148.258 307.229 148.258ZM297.596 82.505H329.426C329.705 81.807 329.914 80.8996 330.054 79.7828C330.193 78.666 330.263 77.619 330.263 76.6417C330.263 73.0121 329.426 70.0106 327.75 67.6374C326.075 65.2641 323.004 64.0775 318.537 64.0775C314.628 64.0775 310.719 65.5433 306.81 68.475C303.041 71.267 299.969 75.9437 297.596 82.505Z" fill="#333333"/>
<path d="M220.965 148.258C212.449 148.258 204.91 146.443 198.349 142.813C191.788 139.184 186.622 134.018 182.853 127.317C179.224 120.477 177.409 112.38 177.409 103.027C177.409 93.394 179.154 84.6689 182.644 76.8511C186.134 68.8938 190.741 62.0533 196.464 56.3296C202.188 50.6059 208.54 46.2084 215.52 43.1372C222.5 40.0659 229.48 38.5303 236.461 38.5303C244.976 38.5303 251.747 40.3451 256.773 43.9748C261.938 47.6044 265.637 52.4207 267.871 58.4236C270.105 64.4265 271.222 71.0576 271.222 78.317C271.222 83.3427 270.524 88.2986 269.127 93.1846C267.731 97.9311 266.615 101.072 265.777 102.608H208.819C208.819 109.867 210.913 115.102 215.101 118.313C219.429 121.524 224.594 123.129 230.597 123.129C233.529 123.129 236.6 122.431 239.811 121.035C243.161 119.639 245.953 118.104 248.187 116.428L259.914 137.369C255.726 140.3 250.351 142.883 243.79 145.117C237.228 147.211 229.62 148.258 220.965 148.258ZM211.332 82.505H243.161C243.441 81.807 243.65 80.8996 243.79 79.7828C243.929 78.666 243.999 77.619 243.999 76.6417C243.999 73.0121 243.161 70.0106 241.486 67.6374C239.811 65.2641 236.74 64.0775 232.272 64.0775C228.364 64.0775 224.455 65.5433 220.546 68.475C216.777 71.267 213.705 75.9437 211.332 82.505Z" fill="#333333"/>
<path d="M67.772 182.6L96.2509 41.0431H123.473L124.311 52.3509H124.73C129.337 48.1628 134.293 44.8124 139.597 42.2995C145.042 39.7867 150.277 38.5303 155.303 38.5303C164.516 38.5303 171.706 41.8807 176.871 48.5816C182.037 55.143 184.619 64.6359 184.619 77.0605C184.619 86.9723 183.084 96.2559 180.012 104.911C176.941 113.567 172.753 121.175 167.448 127.736C162.283 134.158 156.35 139.184 149.649 142.813C143.088 146.443 136.177 148.258 128.918 148.258C125.009 148.258 121.24 147.281 117.61 145.326C114.12 143.232 111.328 140.44 109.234 136.95H108.815L106.302 156.634L101.277 182.6H67.772ZM126.405 121.035C130.453 121.035 134.223 119.36 137.713 116.01C141.342 112.659 144.274 107.982 146.508 101.98C148.741 95.9767 149.858 89.0664 149.858 81.2486C149.858 75.8041 148.951 71.8953 147.136 69.522C145.461 67.0092 143.157 65.7527 140.226 65.7527C137.573 65.7527 134.572 66.5904 131.221 68.2656C128.01 69.8012 125.149 72.8725 122.636 77.4794L115.516 113.078C116.633 115.73 118.168 117.755 120.123 119.151C122.217 120.407 124.311 121.035 126.405 121.035Z" fill="#333333"/>
<path d="M38.1117 148.258C34.0632 148.258 29.6658 147.49 24.9193 145.954C20.1728 144.419 15.5659 142.185 11.0986 139.253C6.77096 136.182 3.0715 132.343 0.000244141 127.736L19.2654 111.822C23.0346 116.149 26.6643 119.29 30.1544 121.245C33.784 123.06 37.1345 123.967 40.2058 123.967C43.4166 123.967 46.1389 123.339 48.3725 122.082C50.7457 120.686 51.9324 118.941 51.9324 116.847C51.9324 114.055 50.3269 111.822 47.1161 110.146C44.0448 108.471 39.7869 106.098 34.3425 103.027C29.1772 100.095 24.5005 96.1861 20.3124 91.3C16.2639 86.4139 14.2397 80.5506 14.2397 73.7101C14.2397 67.0092 16.1243 61.0063 19.8936 55.7014C23.6629 50.3965 28.7584 46.2084 35.1801 43.1372C41.6018 40.0659 48.7215 38.5303 56.5392 38.5303C64.0778 38.5303 70.7787 40.2055 76.642 43.556C82.6449 46.7668 87.8102 50.6757 92.1379 55.2826L74.1292 72.4537C71.6163 69.9408 68.8941 67.777 65.9624 65.9622C63.0308 64.1473 59.8897 63.2399 56.5392 63.2399C53.1888 63.2399 50.5363 64.0077 48.5819 65.5433C46.6275 66.9394 45.6502 68.6844 45.6502 70.7784C45.6502 73.7101 47.4651 76.0135 51.0947 77.6888C54.7244 79.364 58.4937 81.3882 62.4025 83.7615C65.753 85.5763 69.0337 87.8099 72.2445 90.4624C75.4554 92.9752 78.1078 96.1163 80.2019 99.8856C82.2959 103.515 83.3429 107.913 83.3429 113.078C83.3429 120.058 81.3885 126.201 77.4796 131.506C73.7103 136.81 68.4054 140.929 61.5649 143.86C54.7244 146.792 46.9067 148.258 38.1117 148.258Z" fill="#333333"/>
</svg>
